<svg width="16" height="16" viewBox="0 0 16 16" fill="none" xmlns="http://www.w3.org/2000/svg">
<path d="M3.06699 4.66797H4.93366C5.03975 4.66797 5.14149 4.71011 5.2165 4.78513C5.29152 4.86014 5.33366 4.96188 5.33366 5.06797V10.9346C5.33366 10.9872 5.32331 11.0392 5.30321 11.0877C5.28311 11.1362 5.25365 11.1803 5.2165 11.2175C5.17936 11.2546 5.13526 11.2841 5.08673 11.3042C5.0382 11.3243 4.98619 11.3346 4.93366 11.3346H3.06699C3.01446 11.3346 2.96245 11.3243 2.91392 11.3042C2.86539 11.2841 2.82129 11.2546 2.78415 11.2175C2.74701 11.1803 2.71754 11.1362 2.69744 11.0877C2.67734 11.0392 2.66699 10.9872 2.66699 10.9346V5.06797C2.66699 4.96188 2.70913 4.86014 2.78415 4.78513C2.85916 4.71011 2.96091 4.66797 3.06699 4.66797Z" stroke="white" stroke-linecap="round" stroke-linejoin="round"/>
<path d="M11.067 4.66797H12.9337C13.0397 4.66797 13.1415 4.71011 13.2165 4.78513C13.2915 4.86014 13.3337 4.96188 13.3337 5.06797V10.9346C13.3337 10.9872 13.3233 11.0392 13.3032 11.0877C13.2831 11.1362 13.2536 11.1803 13.2165 11.2175C13.1794 11.2546 13.1353 11.2841 13.0867 11.3042C13.0382 11.3243 12.9862 11.3346 12.9337 11.3346H11.067C11.0145 11.3346 10.9624 11.3243 10.9139 11.3042C10.8654 11.2841 10.8213 11.2546 10.7841 11.2175C10.747 11.1803 10.7175 11.1362 10.6974 11.0877C10.6773 11.0392 10.667 10.9872 10.667 10.9346V5.06797C10.667 4.96188 10.7091 4.86014 10.7841 4.78513C10.8592 4.71011 10.9609 4.66797 11.067 4.66797Z" stroke="white" stroke-linecap="round" stroke-linejoin="round"/>
<path d="M5.33366 8H10.667M0.666992 9.6V6.4C0.666992 6.29391 0.709135 6.19217 0.784149 6.11716C0.859164 6.04214 0.960906 6 1.06699 6H2.26699C2.37308 6 2.47482 6.04214 2.54983 6.11716C2.62485 6.19217 2.66699 6.29391 2.66699 6.4V9.6C2.66699 9.70609 2.62485 9.80783 2.54983 9.88284C2.47482 9.95786 2.37308 10 2.26699 10H1.06699C0.960906 10 0.859164 9.95786 0.784149 9.88284C0.709135 9.80783 0.666992 9.70609 0.666992 9.6ZM15.3337 9.6V6.4C15.3337 6.29391 15.2915 6.19217 15.2165 6.11716C15.1415 6.04214 15.0397 6 14.9337 6H13.7337C13.6276 6 13.5258 6.04214 13.4508 6.11716C13.3758 6.19217 13.3337 6.29391 13.3337 6.4V9.6C13.3337 9.70609 13.3758 9.80783 13.4508 9.88284C13.5258 9.95786 13.6276 10 13.7337 10H14.9337C15.0397 10 15.1415 9.95786 15.2165 9.88284C15.2915 9.80783 15.3337 9.70609 15.3337 9.6Z" stroke="white" stroke-linecap="round" stroke-linejoin="round"/>
</svg>
