<svg width="16" height="16" viewBox="0 0 16 16" fill="none" xmlns="http://www.w3.org/2000/svg">
<path d="M12.333 10.7641C12.333 11.9576 11.8589 13.1022 11.015 13.9461C10.1711 14.79 9.02648 15.2641 7.83301 15.2641C6.63953 15.2641 5.49494 14.79 4.65103 13.9461C3.80711 13.1022 3.33301 11.9576 3.33301 10.7641C3.33301 7.51744 6.29834 2.62277 7.41434 0.897435C7.45923 0.827097 7.52112 0.769202 7.59429 0.729097C7.66747 0.688992 7.74957 0.667969 7.83301 0.667969C7.91645 0.667969 7.99855 0.688992 8.07172 0.729097C8.14489 0.769202 8.20678 0.827097 8.25167 0.897435C9.36767 2.62277 12.333 7.51744 12.333 10.7641Z" stroke="white" stroke-linecap="round" stroke-linejoin="round"/>
<path d="M7.83301 13.2657C7.50454 13.2657 7.17928 13.2009 6.87584 13.0752C6.57239 12.9494 6.29671 12.7651 6.06453 12.5327C5.83236 12.3004 5.64825 12.0245 5.52274 11.721C5.39722 11.4175 5.33275 11.0921 5.33301 10.7637" stroke="white" stroke-linecap="round" stroke-linejoin="round"/>
</svg>
