<svg width="16" height="16" viewBox="0 0 16 16" fill="none" xmlns="http://www.w3.org/2000/svg">
<g clip-path="url(#clip0_43_9558)">
<path d="M15.1667 1.33203C11.4847 1.33203 8.5 4.3167 8.5 7.9987C8.5 11.6807 11.4847 14.6654 15.1667 14.6654" stroke="white" stroke-linecap="round" stroke-linejoin="round"/>
<path d="M15.167 3.9987C12.958 3.9987 11.167 5.7897 11.167 7.9987C11.167 10.2077 12.958 11.9987 15.167 11.9987M3.16695 1.33203L3.00029 4.9987M4.83362 1.33203L5.00029 4.9987M6.64862 2.11803C6.80195 3.02403 7.01662 4.60703 6.99929 6.29736C6.99062 7.1697 6.40795 7.95137 5.49195 8.1567C5.30262 8.19903 5.10095 8.23736 4.89029 8.26703L5.48495 12.9114C5.58962 13.7284 5.08662 14.538 4.26995 14.6447C4.16895 14.6577 4.07662 14.6654 4.00029 14.6654C3.90996 14.6636 3.8198 14.6566 3.73029 14.6444C2.91362 14.5377 2.41095 13.7284 2.51562 12.9114L3.11029 8.26703C2.90846 8.23837 2.70786 8.20168 2.50895 8.15703C1.59262 7.95136 1.00995 7.16936 1.00095 6.29703C0.983953 4.60703 1.19795 3.02436 1.35129 2.11836C1.42929 1.6567 1.83329 1.33203 2.30129 1.33203H5.69862C6.16695 1.33203 6.57062 1.65636 6.64862 2.11803Z" stroke="white" stroke-linecap="round" stroke-linejoin="round"/>
</g>
<defs>
<clipPath id="clip0_43_9558">
<rect width="16" height="16" fill="white"/>
</clipPath>
</defs>
</svg>
